<svg width="165" height="88" viewBox="0 0 165 88" fill="none" xmlns="http://www.w3.org/2000/svg">
<g clip-path="url(#clip0)">
<path d="M42.6695 57.5929C42.3268 59.4933 41.7221 61.3037 40.8956 62.9941C39.7265 65.3647 38.1139 67.4851 36.1687 69.2455C35.9167 51.0714 25.9992 46.5204 24.7292 46.0103C33.5784 49.291 41.9136 55.2123 42.6695 57.5929Z" fill="white"/>
<path d="M36.1687 69.2357C34.163 71.0461 31.8146 72.4664 29.2143 73.4067C29.0026 73.4867 28.7809 73.5567 28.5692 73.6267C28.3475 73.6967 28.1258 73.7667 27.904 73.8267C27.6722 73.8868 27.4505 73.9568 27.2187 74.0068C25.5859 74.4169 23.8725 74.6269 22.1188 74.6269C21.0101 74.6269 19.9216 74.5369 18.8633 74.3769C15.6381 73.8768 12.6649 72.6465 10.1149 70.8561C6.32531 68.2055 3.46293 64.3346 2.10229 59.8236C3.53348 61.864 5.60972 63.6044 8.18989 64.7347C9.41951 65.2748 10.6794 65.6349 11.9392 65.8349C14.0356 66.165 16.1118 66.025 17.9865 65.4649C18.2082 65.3948 18.4199 65.3248 18.6416 65.2548C18.8533 65.1748 19.0649 65.0948 19.2665 65.0148C19.4681 64.9347 19.6696 64.8447 19.8611 64.7447C19.8712 64.7347 19.8813 64.7347 19.8914 64.7347C21.7156 63.8445 22.9453 62.0641 23.1468 60.0536C23.1468 60.0536 23.1468 60.0536 23.1468 60.0436C23.3383 58.1132 23.1468 56.0827 22.532 54.0823C22.4716 53.8822 22.4111 53.6822 22.3405 53.4821C22.27 53.2821 22.1994 53.082 22.1188 52.882C22.0382 52.682 21.9575 52.4819 21.8668 52.2819C21.756 52.0318 21.6451 51.7918 21.5241 51.5417C21.4334 51.3717 21.3528 51.2016 21.2621 51.0316C20.0627 48.8211 18.44 47.0107 16.5855 45.6804C15.3962 44.8202 14.1465 44.18 12.8665 43.7499C12.7153 43.6999 12.5641 43.6599 12.4129 43.6099C11.6671 43.3698 10.9515 43.0798 10.246 42.7597C9.8529 42.5797 9.45982 42.3896 9.07683 42.1796C8.43178 41.8395 7.79682 41.4594 7.19209 41.0493C10.125 42.7597 14.3077 43.5499 17.0693 43.95C19.5185 44.3001 22.0886 45.0102 24.6183 45.9404C24.6183 45.9404 24.6284 45.9404 24.6385 45.9504C24.6587 45.9604 24.6889 45.9704 24.7292 45.9804C24.7393 45.9804 24.7494 45.9904 24.7594 45.9904C25.9991 46.5206 35.9167 51.0716 36.1687 69.2357Z" fill="white"/>
<path d="M36.481 15.0434C36.481 15.2835 36.4206 15.5235 36.3097 15.7336C36.2593 15.8236 36.219 15.9236 36.1686 16.0136C35.574 17.1539 34.8886 18.2442 34.1025 19.2544C29.9701 20.0146 26.12 21.5549 22.7134 23.7254C22.5622 23.8254 22.411 23.9254 22.2599 24.0255C22.1591 24.0855 22.0684 24.1555 21.9777 24.2155C21.635 24.4456 21.3024 24.6856 20.9698 24.9257C20.8186 25.0357 20.6674 25.1457 20.5162 25.2657L20.4356 25.2557L19.6898 25.1757L18.9439 25.0957L18.1981 25.0157L17.4523 24.9357H17.4422L17.3616 24.9257L16.7065 24.8557L15.9505 24.7756L15.9001 24.7656C16.0916 24.4156 16.2831 24.0655 16.4948 23.7254C16.515 23.6954 16.5351 23.6654 16.5553 23.6354C17.6841 21.785 19.0951 20.1146 20.7279 18.6843C21.6551 17.8641 22.663 17.1339 23.7314 16.4838C24.2857 16.1437 24.8602 15.8336 25.4448 15.5435C25.8983 15.3235 26.372 15.1134 26.8457 14.9234C26.8558 14.9234 26.8558 14.9234 26.8558 14.9134C27.269 14.7434 27.6823 14.5933 28.1156 14.4533C28.4886 14.3233 28.8716 14.2132 29.2646 14.1132C29.6174 14.0132 29.9701 13.9332 30.333 13.8532C30.6656 13.7831 30.9982 13.7131 31.3308 13.6631C32.4596 13.4731 33.6187 13.373 34.808 13.373H34.8382C35.7352 13.373 36.481 14.1132 36.481 15.0434Z" fill="white"/>
<path d="M-1.01206 58.2731C-1.66718 57.733 -2.00986 56.9428 -1.99978 56.1627C-1.99978 55.8326 -1.92923 55.5025 -1.80829 55.1924C-1.7075 54.9424 -1.5664 54.6923 -1.3749 54.4723C-1.26403 54.3422 -1.14309 54.2222 -1.01206 54.1122C-0.659304 53.8221 -0.246074 53.6321 0.177236 53.5421C0.953303 53.382 1.78984 53.5621 2.45504 54.1022C3.32182 54.8124 3.63426 55.9526 3.3319 56.9528C3.30166 57.0729 3.25127 57.1829 3.20087 57.2929C3.10009 57.503 2.97914 57.713 2.81788 57.903C1.86039 59.0533 0.147 59.2233 -1.01206 58.2731Z" fill="white"/>
<path d="M2.67676 49.4212C3.0998 49.4212 3.44275 49.0809 3.44275 48.661C3.44275 48.2412 3.0998 47.9009 2.67676 47.9009C2.25371 47.9009 1.91077 48.2412 1.91077 48.661C1.91077 49.0809 2.25371 49.4212 2.67676 49.4212Z" fill="white"/>
<path d="M0.30827 52.8922C1.18775 52.8922 1.90072 52.1846 1.90072 51.3118C1.90072 50.439 1.18775 49.7314 0.30827 49.7314C-0.571216 49.7314 -1.28418 50.439 -1.28418 51.3118C-1.28418 52.1846 -0.571216 52.8922 0.30827 52.8922Z" fill="white"/>
<path d="M2.23329 28.4166C2.4147 28.2965 2.6062 28.1865 2.80778 28.0865C3.08998 27.9164 3.36211 27.7364 3.63424 27.5464C4.67236 26.8062 5.58953 25.916 6.3656 24.9158C6.39583 24.8758 6.43615 24.8257 6.46638 24.7857C6.68812 24.3656 7.10135 24.0656 7.58513 23.9555C7.70608 23.9255 7.82702 23.9155 7.94797 23.9155C7.9782 23.9155 8.00844 23.9155 8.0286 23.9155C8.03868 23.9155 8.03868 23.9155 8.04876 23.9155C8.09915 23.9155 8.15962 23.9255 8.21002 23.9355L15.88 24.7557L15.9304 24.7657L16.6863 24.8458L17.3414 24.9158L17.422 24.9258H17.4321L18.178 25.0058L18.9238 25.0858L19.6696 25.1658L20.4154 25.2458L20.4961 25.2558C20.6473 25.1458 20.7984 25.0258 20.9496 24.9158C21.2822 24.6757 21.6148 24.4357 21.9575 24.2056C22.0482 24.1456 22.149 24.0756 22.2397 24.0156C22.3909 23.9155 22.5421 23.8155 22.6933 23.7155C26.0999 21.545 29.9601 20.0046 34.0823 19.2445C35.9771 18.8944 37.9324 18.7144 39.928 18.7144C39.9582 18.7144 39.9885 18.7144 40.0187 18.7144C40.7142 18.7144 41.3995 18.7444 42.0748 18.7844C42.3973 18.8044 42.6694 18.9944 42.7904 19.2745C42.8307 19.3745 42.8609 19.4845 42.8609 19.5946C42.8609 19.6546 42.8509 19.7146 42.8408 19.7646C42.8307 19.8246 42.8106 19.8946 42.7803 19.9446C42.7702 19.9646 42.7602 19.9946 42.74 20.0147C42.7098 20.0747 42.6694 20.1447 42.6392 20.2047C42.5787 20.3047 42.5183 20.4147 42.4679 20.5148C42.4276 20.5848 42.3872 20.6548 42.3469 20.7248C42.3469 20.7348 42.3368 20.7348 42.3368 20.7448C42.2865 20.8248 42.2361 20.9149 42.1857 20.9949C42.1857 20.9949 42.1857 21.0049 42.1756 21.0049C42.1151 21.0949 42.0647 21.1949 42.0042 21.2849C41.9135 21.425 41.8228 21.565 41.7321 21.705C41.3592 22.2652 40.9661 22.8053 40.5529 23.3254C40.4521 23.4454 40.3513 23.5755 40.2505 23.6955C39.9079 24.1056 39.545 24.5057 39.162 24.8958C38.8193 25.2458 38.4666 25.5859 38.1037 25.906C37.6905 26.2761 37.2571 26.6362 36.8036 26.9762C34.8483 28.4566 32.631 29.6168 30.2221 30.367C29.0227 30.7371 27.773 31.0172 26.493 31.1772C26.12 31.2272 25.7471 31.2572 25.3742 31.2872C25.3742 31.2072 25.3641 31.1372 25.3641 31.0572C25.3238 30.6071 25.1928 30.187 24.9912 29.8169C24.4369 28.7866 23.3383 28.0765 22.0784 28.0765C22.0079 28.0765 21.9373 28.0765 21.8668 28.0865C20.9496 28.1465 20.1232 28.5766 19.5587 29.2367C19.2765 29.5668 19.0649 29.9469 18.9238 30.377C18.8835 30.507 18.8532 30.6471 18.823 30.7771C18.7928 30.9671 18.7726 31.1572 18.7726 31.3472C18.7726 32.0074 18.9742 32.6275 19.3068 33.1376C19.3471 33.1977 19.3975 33.2677 19.4378 33.3277C20.0425 34.1179 20.9899 34.618 22.0583 34.618C23.1266 34.618 24.0841 34.1079 24.6788 33.3277C28.5591 33.8078 32.1069 35.3481 35.0196 37.6487C35.1103 37.7187 35.2011 37.7887 35.2817 37.8587C35.574 38.0888 35.8562 38.3388 36.1283 38.5889C39.9381 42.0397 42.4477 46.8708 42.871 52.282C41.6213 44.1702 21.252 42.8999 20.617 42.8599C20.6069 42.8599 20.6069 42.8599 20.6069 42.8599C13.5014 42.5898 7.27269 38.8689 3.58385 33.3477C2.69691 32.0174 1.95108 30.5771 1.37659 29.0567C1.54793 28.8767 1.73942 28.7166 1.941 28.5666L2.23329 28.4166Z" fill="white"/>
<path d="M43.0021 53.902C43.0021 53.9621 43.0021 54.0221 43.0021 54.0821C43.0021 54.1521 43.0021 54.2321 43.0021 54.3021C42.9819 55.4224 42.8711 56.5126 42.6796 57.5829C41.9236 55.2023 33.5885 49.281 24.7393 46.0002C24.7292 46.0002 24.7191 45.9902 24.7091 45.9902C24.6687 45.9702 24.6385 45.9602 24.6184 45.9602C24.6083 45.9602 24.5982 45.9502 24.5982 45.9502C22.0684 45.02 19.4882 44.3099 17.0492 43.9598C14.2775 43.5597 10.1049 42.7695 7.17196 41.0591C6.85952 40.8491 6.55715 40.639 6.26487 40.409C6.25479 40.399 6.24471 40.389 6.23463 40.389C6.07337 40.2689 5.91211 40.1489 5.76093 40.0189C5.59967 39.8889 5.44848 39.7688 5.2973 39.6388C5.20659 39.5588 5.11588 39.4788 5.01509 39.3987C4.95462 39.3487 4.89415 39.2987 4.84376 39.2387C4.69257 39.1087 4.55147 38.9687 4.40029 38.8286C4.25919 38.6886 4.11808 38.5586 3.97698 38.4185C3.83588 38.2785 3.69477 38.1285 3.55367 37.9784C3.15052 37.5483 2.76752 37.1082 2.39461 36.6481C1.74956 36.248 1.19523 35.6979 0.79208 35.0478C0.439322 34.4776 0.197431 33.8375 0.106722 33.1473C0.0764852 32.9373 0.0664062 32.7172 0.0664062 32.4872C0.0664062 32.0571 0.126879 31.637 0.227667 31.2369C0.4494 30.4067 0.882789 29.6565 1.46736 29.0664C2.04185 30.5868 2.78768 32.0271 3.67461 33.3574C7.36345 38.8786 13.5821 42.5895 20.6977 42.8695H20.7078C21.3427 42.9095 41.7019 44.1798 42.9618 52.2917C42.9718 52.4917 42.992 52.6918 43.0021 52.8918C43.0121 53.0919 43.0222 53.2919 43.0222 53.4919C43.0021 53.622 43.0021 53.762 43.0021 53.902Z" fill="white"/>
<path d="M69.8964 52.2119C69.8964 52.8321 69.8057 53.4222 69.6243 53.9423C69.4429 54.4824 69.1506 54.9625 68.7575 55.3626C68.3645 55.7627 67.8605 56.0728 67.2558 56.3028C66.6611 56.5229 65.9355 56.6329 65.0989 56.6329H56.9754V55.2726C56.9754 54.2924 57.7717 53.5022 58.7594 53.5022H65.1796C65.7339 53.5022 66.1371 53.3722 66.3789 53.1321C66.6208 52.8821 66.7418 52.552 66.7418 52.1419C66.7418 51.9619 66.7115 51.7818 66.6511 51.6018C66.6007 51.4417 66.5201 51.3117 66.389 51.2017C66.258 51.0817 66.0766 50.9816 65.8448 50.9016C65.6029 50.8216 65.2804 50.7816 64.8974 50.7816H61.652C60.6743 50.7816 59.858 50.6516 59.2331 50.4115C58.588 50.1614 58.074 49.8214 57.7011 49.3913C57.3282 48.9712 57.0661 48.4911 56.925 47.9609C56.7839 47.4508 56.7134 46.9407 56.7134 46.4306C56.7134 45.8205 56.8041 45.2503 56.9653 44.7302C57.1468 44.1901 57.429 43.72 57.812 43.3299C58.195 42.9398 58.6989 42.6297 59.3036 42.4197C59.8882 42.2096 60.6038 42.0996 61.4101 42.0996H68.8382V43.66C68.8382 44.5302 68.1327 45.2303 67.2558 45.2303H61.3395C60.8154 45.2303 60.4325 45.3504 60.2208 45.5804C59.9991 45.8205 59.8882 46.1305 59.8882 46.5206C59.8882 46.6907 59.9084 46.8607 59.9688 47.0207C60.0091 47.1608 60.0898 47.2908 60.2107 47.4108C60.3317 47.5308 60.4929 47.6209 60.7046 47.6909C60.9263 47.7709 61.2287 47.8009 61.6016 47.8009H64.8671C65.8548 47.8009 66.6813 47.9309 67.3364 48.191C67.9916 48.4511 68.5156 48.7911 68.8986 49.2112C69.2917 49.6313 69.5638 50.1214 69.7049 50.6716C69.8259 51.1717 69.8964 51.6918 69.8964 52.2119Z" fill="white"/>
<path d="M81.477 42.0896V45.2103H77.4052V55.0125C77.4052 55.9027 76.6795 56.6229 75.7825 56.6229H74.2303V45.2103H70.1686V42.0796H81.477V42.0896Z" fill="white"/>
<path d="M97.3007 42.0894L91.3542 50.4213V56.6227H88.1794V50.4213L82.2329 42.0894H86.0729L89.7819 47.7206L93.5312 42.0894H97.3007Z" fill="white"/>
<path d="M106.996 53.4922V56.6229H101.08C100.123 56.6229 99.2862 56.4929 98.5908 56.2429C97.8852 55.9828 97.3007 55.6227 96.8572 55.1626C96.4137 54.7025 96.0811 54.1524 95.8796 53.5222C95.6881 52.9121 95.5873 52.2319 95.5873 51.5018V47.5509L98.7419 43.1299V51.4818C98.7419 51.7718 98.7823 52.0519 98.8629 52.312C98.9334 52.552 99.0544 52.7521 99.2358 52.9221C99.4172 53.0921 99.6692 53.2322 99.9816 53.3422C100.304 53.4522 100.727 53.5022 101.241 53.5022H106.996V53.4922Z" fill="white"/>
<path d="M121.298 43.92C120.149 42.6997 118.486 42.0796 116.36 42.0796H114.465C112.338 42.0796 110.675 42.6997 109.526 43.92C108.387 45.1303 107.813 46.9707 107.813 49.3812C107.813 51.7918 108.387 53.6122 109.526 54.8125C110.675 56.0128 112.328 56.6229 114.465 56.6229H116.36C118.486 56.6229 120.149 56.0128 121.298 54.8125C122.437 53.6122 123.012 51.7918 123.012 49.3812C123.012 46.9707 122.437 45.1303 121.298 43.92ZM111.784 46.1605C112.328 45.5304 113.225 45.2203 114.455 45.2203H116.35C117.579 45.2203 118.476 45.5404 119.01 46.1605C119.555 46.8007 119.837 47.8809 119.837 49.3712C119.837 50.8616 119.555 51.9318 119 52.572C118.456 53.1921 117.569 53.5022 116.35 53.5022H114.455C113.205 53.5022 112.308 53.1921 111.774 52.582C111.23 51.9518 110.957 50.8816 110.957 49.3912C110.957 47.8809 111.24 46.7907 111.784 46.1605Z" fill="white"/>
<path d="M137.928 56.6229H134.401L131.609 51.9218C131.367 51.5217 130.934 51.2717 130.46 51.2717H127.799V56.6229H124.644V49.5713C124.644 48.8411 125.239 48.251 125.975 48.251H132.617C132.909 48.251 133.161 48.201 133.363 48.121C133.554 48.0309 133.715 47.9209 133.836 47.7909C133.957 47.6509 134.048 47.4808 134.109 47.2908C134.169 47.0907 134.199 46.8907 134.199 46.6806C134.199 46.2705 134.078 45.9305 133.816 45.6304C133.574 45.3603 133.171 45.2103 132.617 45.2103H124.614V42.0796H132.526C133.353 42.0796 134.078 42.1996 134.683 42.4397C135.288 42.6797 135.802 43.0098 136.205 43.4199C136.598 43.83 136.9 44.3201 137.092 44.8802C137.273 45.4203 137.364 45.9905 137.364 46.5706C137.364 47.0307 137.304 47.5008 137.193 47.9609C137.072 48.421 136.89 48.8611 136.628 49.2712C136.376 49.6813 136.044 50.0514 135.63 50.3615L134.673 51.1016L137.928 56.6229Z" fill="white"/>
<path d="M143.663 42.0894V55.0623C143.663 55.9225 142.958 56.6227 142.091 56.6227H140.519V43.6497C140.519 42.7895 141.224 42.0894 142.091 42.0894H143.663Z" fill="white"/>
<path d="M145.225 42.2095V43.7698C145.225 44.63 145.931 45.3302 146.798 45.3302H149.287V55.1824C149.287 56.0426 149.993 56.7428 150.86 56.7428H152.452V45.3402H154.941C155.808 45.3402 156.514 44.64 156.514 43.7798V42.2095H145.225Z" fill="white"/>
</g>
<defs>
<clipPath id="clip0">
<rect width="165" height="88" fill="white"/>
</clipPath>
</defs>
</svg>
