<svg width="173" height="92" viewBox="0 0 173 92" fill="none" xmlns="http://www.w3.org/2000/svg">
<g clip-path="url(#clip0)">
<path d="M56.4408 60.2109C56.0815 62.1977 55.4475 64.0904 54.581 65.8577C53.3551 68.336 51.6643 70.5528 49.6248 72.3932C49.3606 53.393 38.9622 48.6351 37.6307 48.1018C46.909 51.5317 55.6483 57.7222 56.4408 60.2109Z" fill="url(#paint0_linear)"/>
<path d="M49.6248 72.3828C47.5219 74.2755 45.0597 75.7604 42.3333 76.7433C42.1114 76.827 41.8789 76.9002 41.657 76.9734C41.4245 77.0466 41.192 77.1198 40.9595 77.1825C40.7165 77.2453 40.484 77.3185 40.2409 77.3707C38.529 77.7995 36.7325 78.0191 34.8938 78.0191C33.7314 78.0191 32.5901 77.925 31.4805 77.7576C28.0989 77.2348 24.9815 75.9486 22.3079 74.0768C18.3346 71.3057 15.3334 67.2589 13.9068 62.5428C15.4074 64.676 17.5843 66.4955 20.2895 67.6772C21.5788 68.2419 22.8997 68.6183 24.2206 68.8274C26.4187 69.1725 28.5956 69.0261 30.5611 68.4405C30.7936 68.3673 31.0155 68.2941 31.248 68.2209C31.4699 68.1373 31.6918 68.0536 31.9032 67.97C32.1145 67.8863 32.3259 67.7922 32.5267 67.6876C32.5372 67.6772 32.5478 67.6772 32.5584 67.6772C34.4711 66.7465 35.7603 64.8852 35.9717 62.7833C35.9717 62.7833 35.9717 62.7833 35.9717 62.7729C36.1724 60.7547 35.9717 58.6319 35.327 56.5406C35.2636 56.3314 35.2002 56.1223 35.1263 55.9131C35.0523 55.704 34.9783 55.4949 34.8938 55.2857C34.8092 55.0766 34.7247 54.8675 34.6296 54.6583C34.5134 54.3969 34.3971 54.1459 34.2703 53.8845C34.1752 53.7067 34.0907 53.529 33.9956 53.3512C32.738 51.0402 31.0367 49.1475 29.0922 47.7567C27.8453 46.8575 26.5349 46.1882 25.1929 45.7386C25.0343 45.6863 24.8758 45.6444 24.7173 45.5922C23.9353 45.3412 23.185 45.0379 22.4453 44.7033C22.0332 44.5151 21.621 44.3164 21.2195 44.0968C20.5432 43.7413 19.8774 43.3439 19.2434 42.9152C22.3185 44.7033 26.704 45.5294 29.5995 45.9477C32.1674 46.3137 34.8621 47.0561 37.5145 48.0286C37.5145 48.0286 37.5251 48.0286 37.5357 48.0391C37.5568 48.0495 37.5885 48.06 37.6308 48.0705C37.6413 48.0705 37.6519 48.0809 37.6625 48.0809C38.9623 48.6351 49.3606 53.393 49.6248 72.3828Z" fill="url(#paint1_linear)"/>
<path d="M49.963 15.7272C49.963 15.9782 49.8996 16.2291 49.7834 16.4487C49.7306 16.5428 49.6883 16.6474 49.6354 16.7415C49.012 17.9336 48.2934 19.0734 47.4691 20.1296C43.1365 20.9243 39.0997 22.5347 35.5279 24.8038C35.3694 24.9084 35.2109 25.0129 35.0523 25.1175C34.9467 25.1803 34.8516 25.2535 34.7565 25.3162C34.3972 25.5567 34.0484 25.8077 33.6997 26.0586C33.5412 26.1737 33.3827 26.2887 33.2242 26.4142L33.1396 26.4037L32.3576 26.3201L31.5756 26.2364L30.7937 26.1528L30.0117 26.0691H30.0011L29.9166 26.0586L29.2297 25.9854L28.4371 25.9018L28.3843 25.8913C28.5851 25.5253 28.7858 25.1593 29.0078 24.8038C29.0289 24.7724 29.05 24.7411 29.0712 24.7097C30.2547 22.7752 31.7342 21.0289 33.4461 19.5335C34.4183 18.6761 35.475 17.9127 36.5952 17.233C37.1764 16.8775 37.7788 16.5533 38.3917 16.25C38.8672 16.02 39.3639 15.8004 39.8605 15.6017C39.8711 15.6017 39.8711 15.6017 39.8711 15.5913C40.3044 15.4135 40.7376 15.2566 41.192 15.1102C41.583 14.9743 41.9846 14.8593 42.3967 14.7547C42.7666 14.6501 43.1365 14.5665 43.5169 14.4828C43.8656 14.4096 44.2143 14.3364 44.5631 14.2841C45.7466 14.0855 46.9619 13.9809 48.2088 13.9809H48.2405C49.1705 13.9809 49.963 14.7547 49.963 15.7272Z" fill="url(#paint2_linear)"/>
<path d="M10.6414 60.922C9.95454 60.3573 9.59525 59.5312 9.60582 58.7156C9.60582 58.3705 9.67979 58.0254 9.8066 57.7013C9.91227 57.4399 10.0602 57.1784 10.261 56.9484C10.3772 56.8124 10.5041 56.687 10.6414 56.5719C11.0113 56.2687 11.4446 56.07 11.8884 55.9759C12.7021 55.8086 13.5792 55.9968 14.2766 56.5615C15.1854 57.3039 15.513 58.496 15.196 59.5417C15.1643 59.6672 15.1115 59.7822 15.0586 59.8972C14.953 60.1168 14.8261 60.3364 14.6571 60.5351C13.6532 61.7376 11.8567 61.9154 10.6414 60.922Z" fill="#1AA3CF"/>
<path d="M14.5092 51.6676C14.9527 51.6676 15.3123 51.3118 15.3123 50.8729C15.3123 50.434 14.9527 50.0782 14.5092 50.0782C14.0656 50.0782 13.7061 50.434 13.7061 50.8729C13.7061 51.3118 14.0656 51.6676 14.5092 51.6676Z" fill="#28A8D6"/>
<path d="M12.0364 55.2962C12.9585 55.2962 13.706 54.5565 13.706 53.644C13.706 52.7315 12.9585 51.9918 12.0364 51.9918C11.1142 51.9918 10.3667 52.7315 10.3667 53.644C10.3667 54.5565 11.1142 55.2962 12.0364 55.2962Z" fill="#169DC9"/>
<path d="M14.0441 29.7081C14.2343 29.5826 14.4351 29.4676 14.6465 29.363C14.9423 29.1852 15.2277 28.997 15.513 28.7983C16.6014 28.0245 17.5631 27.0939 18.3768 26.0482C18.4085 26.0063 18.4507 25.9541 18.4824 25.9122C18.7149 25.473 19.1482 25.1593 19.6554 25.0443C19.7822 25.0129 19.9091 25.0025 20.0359 25.0025C20.0676 25.0025 20.0993 25.0025 20.1204 25.0025C20.131 25.0025 20.131 25.0025 20.1415 25.0025C20.1944 25.0025 20.2578 25.0129 20.3106 25.0234L28.3525 25.8809L28.4053 25.8913L29.1979 25.975L29.8847 26.0482L29.9693 26.0586H29.9798L30.7618 26.1423L31.5438 26.2259L32.3258 26.3096L33.1078 26.3932L33.1924 26.4037C33.3509 26.2887 33.5094 26.1632 33.6679 26.0482C34.0166 25.7972 34.3653 25.5462 34.7246 25.3057C34.8197 25.243 34.9254 25.1698 35.0205 25.107C35.179 25.0025 35.3375 24.8979 35.4961 24.7933C39.0679 22.5242 43.1152 20.9138 47.4373 20.1191C49.424 19.7531 51.4741 19.5649 53.5664 19.5649C53.5981 19.5649 53.6298 19.5649 53.6615 19.5649C54.3907 19.5649 55.1093 19.5963 55.8173 19.6381C56.1555 19.659 56.4408 19.8577 56.5676 20.1505C56.6099 20.255 56.6416 20.3701 56.6416 20.4851C56.6416 20.5478 56.631 20.6106 56.6204 20.6629C56.6099 20.7256 56.5887 20.7988 56.557 20.8511C56.5464 20.872 56.5359 20.9034 56.5147 20.9243C56.483 20.987 56.4408 21.0602 56.4091 21.123C56.3457 21.2275 56.2823 21.3426 56.2294 21.4471C56.1871 21.5203 56.1449 21.5935 56.1026 21.6667C56.1026 21.6772 56.092 21.6772 56.092 21.6876C56.0392 21.7713 55.9864 21.8654 55.9335 21.9491C55.9335 21.9491 55.9335 21.9595 55.923 21.9595C55.8596 22.0536 55.8067 22.1582 55.7433 22.2523C55.6482 22.3987 55.5531 22.5451 55.458 22.6915C55.067 23.2771 54.6549 23.8418 54.2216 24.3855C54.1159 24.511 54.0103 24.6469 53.9046 24.7724C53.5453 25.2012 53.1649 25.6194 52.7633 26.0273C52.404 26.3932 52.0341 26.7488 51.6537 27.0834C51.2204 27.4703 50.766 27.8468 50.2905 28.2023C48.2404 29.7499 45.9156 30.9629 43.39 31.7472C42.1324 32.1341 40.8221 32.4269 39.48 32.5942C39.089 32.6465 38.698 32.6779 38.307 32.7092C38.307 32.6256 38.2964 32.5524 38.2964 32.4687C38.2542 31.9982 38.1168 31.559 37.9054 31.1721C37.3242 30.095 36.1724 29.3526 34.8514 29.3526C34.7775 29.3526 34.7035 29.3526 34.6295 29.363C33.6679 29.4258 32.8014 29.8754 32.2096 30.5656C31.9137 30.9106 31.6918 31.308 31.5438 31.7577C31.5016 31.8936 31.4699 32.04 31.4382 32.1759C31.4065 32.3746 31.3853 32.5733 31.3853 32.772C31.3853 33.4621 31.5967 34.1105 31.9454 34.6438C31.9877 34.7065 32.0405 34.7797 32.0828 34.8424C32.7168 35.6685 33.7102 36.1914 34.8303 36.1914C35.9505 36.1914 36.9544 35.6581 37.5779 34.8424C41.6463 35.3444 45.3661 36.9547 48.4201 39.3598C48.5152 39.433 48.6103 39.5062 48.6948 39.5794C49.0013 39.8199 49.2972 40.0814 49.5825 40.3428C53.577 43.9504 56.2083 49.0011 56.6521 54.6583C55.4157 46.1882 34.0589 44.8602 33.3931 44.8183C33.3826 44.8183 33.3826 44.8183 33.3826 44.8183C25.9325 44.536 19.4018 40.646 15.5341 34.8738C14.6042 33.483 13.8222 31.9772 13.2198 30.3878C13.3995 30.1996 13.6003 30.0323 13.8116 29.8754L14.0441 29.7081Z" fill="url(#paint3_linear)"/>
<path d="M56.7896 56.3524C56.7896 56.4151 56.7896 56.4778 56.7896 56.5406C56.7896 56.6138 56.7896 56.6974 56.7896 56.7706C56.7684 57.9418 56.6522 59.0816 56.4514 60.2005C55.6588 57.7118 46.9195 51.5213 37.6413 48.0914C37.6307 48.0914 37.6202 48.0809 37.6096 48.0809C37.5673 48.06 37.5356 48.0496 37.5145 48.0496C37.5039 48.0496 37.4934 48.0391 37.4934 48.0391C34.8409 47.0666 32.1357 46.3242 29.5783 45.9582C26.6723 45.5399 22.2974 44.7138 19.2222 42.9257C18.8946 42.7061 18.5776 42.4865 18.2711 42.246C18.2606 42.2355 18.25 42.2251 18.2394 42.2251C18.0704 42.0996 17.9013 41.9741 17.7428 41.8381C17.5737 41.7022 17.4152 41.5767 17.2567 41.4408C17.1616 41.3571 17.0665 41.2735 16.9608 41.1898C16.8974 41.1375 16.834 41.0852 16.7811 41.0225C16.6226 40.8866 16.4747 40.7402 16.3162 40.5938C16.1682 40.4474 16.0203 40.3114 15.8723 40.165C15.7244 40.0186 15.5764 39.8618 15.4285 39.7049C15.0058 39.2553 14.6042 38.7952 14.2132 38.3142C13.5369 37.8959 12.9557 37.3208 12.533 36.6411C12.1632 36.045 11.9095 35.3758 11.8144 34.6542C11.7827 34.4346 11.7722 34.2046 11.7722 33.9641C11.7722 33.5144 11.8356 33.0752 11.9412 32.657C12.1737 31.789 12.6281 31.0048 13.241 30.3878C13.8434 31.9773 14.6254 33.4831 15.5553 34.8738C19.423 40.6461 25.9431 44.5256 33.4038 44.8184H33.4143C34.0801 44.8602 55.4264 46.1882 56.7473 54.6688C56.7579 54.8779 56.779 55.0871 56.7896 55.2962C56.8001 55.5053 56.8107 55.7145 56.8107 55.9236C56.7896 56.0596 56.7896 56.206 56.7896 56.3524Z" fill="url(#paint4_linear)"/>
<path d="M74.004 54.5851C74.004 55.2335 73.9089 55.8504 73.7187 56.3942C73.5285 56.9589 73.222 57.4608 72.8099 57.8791C72.3978 58.2973 71.8694 58.6215 71.2353 58.862C70.6119 59.0921 69.851 59.2071 68.9739 59.2071H60.4565V57.785C60.4565 56.7602 61.2913 55.9341 62.327 55.9341H69.0584C69.6397 55.9341 70.0624 55.7981 70.316 55.5472C70.5696 55.2857 70.6964 54.9407 70.6964 54.5119C70.6964 54.3237 70.6647 54.1355 70.6013 53.9473C70.5485 53.78 70.4639 53.644 70.3265 53.529C70.1892 53.4035 69.9989 53.2989 69.7559 53.2153C69.5023 53.1316 69.1641 53.0898 68.7626 53.0898H65.3598C64.3348 53.0898 63.4788 52.9539 62.8236 52.7029C62.1473 52.4415 61.6084 52.0859 61.2174 51.6363C60.8264 51.1971 60.5516 50.6952 60.4037 50.1409C60.2557 49.6076 60.1818 49.0743 60.1818 48.541C60.1818 47.9032 60.2769 47.3071 60.4459 46.7634C60.6362 46.1987 60.9321 45.7072 61.3336 45.2994C61.7352 44.8916 62.2636 44.5674 62.8976 44.3478C63.5105 44.1282 64.2608 44.0132 65.1062 44.0132H72.8839V45.6445C72.8839 46.5542 72.1441 47.2862 71.2248 47.2862H65.0217C64.4722 47.2862 64.0706 47.4117 63.8487 47.6522C63.6162 47.9032 63.5 48.2273 63.5 48.6351C63.5 48.8129 63.5211 48.9907 63.5845 49.158C63.6268 49.3044 63.7113 49.4403 63.8381 49.5658C63.9649 49.6913 64.134 49.7854 64.3559 49.8586C64.5884 49.9423 64.9054 49.9736 65.2964 49.9736H68.7203C69.7559 49.9736 70.6224 50.1096 71.3093 50.3814C71.9962 50.6533 72.5457 51.0089 72.9473 51.4481C73.3594 51.8872 73.6447 52.3996 73.7927 52.9748C73.93 53.4976 74.004 54.0414 74.004 54.5851Z" fill="#18769C"/>
<path d="M86.146 44.0027V47.2653H81.8873V57.5131C81.8873 58.4438 81.1265 59.1966 80.186 59.1966H78.5586V47.2653H74.2893V43.9923H86.146V44.0027Z" fill="#18769C"/>
<path d="M102.747 44.0027L96.5021 52.7134V59.1967H93.184V52.7134L86.9386 44.0027H90.9648L94.8536 49.89L98.7847 44.0027H102.747Z" fill="#18769C"/>
<path d="M112.903 55.9236V59.1966H106.7C105.696 59.1966 104.819 59.0607 104.09 58.7993C103.35 58.5274 102.737 58.151 102.272 57.6699C101.807 57.1889 101.458 56.6138 101.247 55.955C101.046 55.3171 100.94 54.6061 100.94 53.8427V49.7122L104.248 45.0903V53.8218C104.248 54.125 104.29 54.4178 104.375 54.6897C104.449 54.9407 104.576 55.1498 104.766 55.3276C104.956 55.5054 105.22 55.6518 105.548 55.7668C105.886 55.8818 106.33 55.9341 106.869 55.9341H112.903V55.9236Z" fill="#18769C"/>
<path d="M127.898 45.9164C126.693 44.6406 124.95 43.9923 122.72 43.9923H120.733C118.504 43.9923 116.76 44.6406 115.555 45.9164C114.361 47.1816 113.759 49.1057 113.759 51.6258C113.759 54.146 114.361 56.0491 115.555 57.3039C116.76 58.5588 118.493 59.1966 120.733 59.1966H122.72C124.95 59.1966 126.693 58.5588 127.898 57.3039C129.092 56.0491 129.695 54.146 129.695 51.6258C129.695 49.1057 129.092 47.1816 127.898 45.9164ZM117.933 48.2587C118.504 47.5999 119.444 47.2758 120.733 47.2758H122.72C124.009 47.2758 124.95 47.6104 125.51 48.2587C126.08 48.9279 126.376 50.0573 126.376 51.6154C126.376 53.1735 126.08 54.2923 125.499 54.9616C124.929 55.6099 123.999 55.9341 122.72 55.9341H120.733C119.423 55.9341 118.482 55.6099 117.922 54.9721C117.352 54.3133 117.066 53.1944 117.066 51.6363C117.056 50.0573 117.352 48.9175 117.933 48.2587Z" fill="#18769C"/>
<path d="M145.334 59.1966H141.636L138.709 54.2819C138.455 53.8636 138.001 53.6022 137.504 53.6022H134.714V59.1966H131.406V51.8245C131.406 51.0612 132.03 50.4442 132.801 50.4442H139.765C140.072 50.4442 140.336 50.3919 140.547 50.3083C140.748 50.2141 140.917 50.0991 141.044 49.9632C141.171 49.8168 141.266 49.639 141.329 49.4403C141.393 49.2312 141.424 49.0221 141.424 48.8025C141.424 48.3737 141.298 48.0182 141.023 47.7045C140.769 47.4222 140.347 47.2653 139.765 47.2653H131.375V43.9923H139.67C140.537 43.9923 141.298 44.1178 141.932 44.3687C142.566 44.6197 143.105 44.9648 143.527 45.3935C143.939 45.8222 144.257 46.3346 144.457 46.9202C144.648 47.4849 144.743 48.0809 144.743 48.6874C144.743 49.1685 144.679 49.6599 144.563 50.141C144.436 50.622 144.246 51.0821 143.971 51.5108C143.707 51.9395 143.358 52.3264 142.925 52.6506L141.921 53.4244L145.334 59.1966Z" fill="#18769C"/>
<path d="M151.358 44.0027V57.5654C151.358 58.4647 150.618 59.1967 149.709 59.1967H148.05V45.634C148.05 44.7347 148.79 44.0027 149.699 44.0027H151.358Z" fill="#18769C"/>
<path d="M152.985 44.1282V45.7595C152.985 46.6588 153.725 47.3908 154.634 47.3908H157.244V57.6908C157.244 58.5901 157.984 59.3221 158.892 59.3221H160.562V47.4012H163.172C164.081 47.4012 164.821 46.6692 164.821 45.7699V44.1282H152.985Z" fill="#18769C"/>
</g>
<defs>
<linearGradient id="paint0_linear" x1="31.1939" y1="35.6524" x2="64.2296" y2="82.835" gradientUnits="userSpaceOnUse">
<stop stop-color="#036C9E"/>
<stop offset="0.5588" stop-color="#118EBE"/>
<stop offset="1" stop-color="#28A8D6"/>
</linearGradient>
<linearGradient id="paint1_linear" x1="44.3416" y1="42.3581" x2="13.0921" y2="91.5741" gradientUnits="userSpaceOnUse">
<stop stop-color="#1B77A8"/>
<stop offset="0.7359" stop-color="#28A8D6"/>
</linearGradient>
<linearGradient id="paint2_linear" x1="56.416" y1="5.9521" x2="21.8833" y2="36.5661" gradientUnits="userSpaceOnUse">
<stop stop-color="#28A8D6"/>
<stop offset="1" stop-color="#1D88AE"/>
</linearGradient>
<linearGradient id="paint3_linear" x1="77.2256" y1="53.9761" x2="1.71552" y2="6.46086" gradientUnits="userSpaceOnUse">
<stop stop-color="#1B77A8"/>
<stop offset="0.6673" stop-color="#1FABD1"/>
</linearGradient>
<linearGradient id="paint4_linear" x1="73.117" y1="64.8289" x2="6.26199" y2="30.6907" gradientUnits="userSpaceOnUse">
<stop stop-color="#1B77A8"/>
<stop offset="1" stop-color="#28A8D6"/>
</linearGradient>
<clipPath id="clip0">
<rect width="173" height="92" fill="white"/>
</clipPath>
</defs>
</svg>
